<svg xmlns="http://www.w3.org/2000/svg" xmlns:xlink="http://www.w3.org/1999/xlink" preserveAspectRatio="xMidYMid meet" version="1.0" viewBox="-2.2 -3.3 133.2 109.5" zoomAndPan="magnify" original_string_length="6326" width="133px" height="110px"><g id="__id169_skf8sys4wq"><path d="M76.388,45.018V20.444c0-0.552-0.447-1-1-1H50.815c-0.553,0-1,0.448-1,1v24.574c0,0.552,0.447,1,1,1h24.573 C75.941,46.018,76.388,45.57,76.388,45.018z M74.388,44.018H51.815V21.444h22.573V44.018z" style="fill: inherit;"></path><path d="M94.676,84.464c-0.545,0-1.061,0.112-1.546,0.29L76.267,53.723c-0.175-0.322-0.513-0.522-0.879-0.522h-3.945v-2.11h4.465 c3.063,0,5.554-2.491,5.554-5.553v-4.465h4.19c0.553,0,1-0.448,1-1s-0.447-1-1-1h-4.19v-5.341h4.19c0.553,0,1-0.448,1-1 s-0.447-1-1-1h-4.19V26.39h4.19c0.553,0,1-0.448,1-1s-0.447-1-1-1h-4.19v-4.465c0-3.063-2.491-5.554-5.554-5.554h-4.465V10.18 c0-0.552-0.447-1-1-1s-1,0.448-1,1v4.191h-5.341V10.18c0-0.552-0.447-1-1-1s-1,0.448-1,1v4.191H56.76V10.18c0-0.552-0.447-1-1-1 s-1,0.448-1,1v4.191h-4.465c-3.063,0-5.554,2.491-5.554,5.554v4.465h-4.19c-0.553,0-1,0.448-1,1s0.447,1,1,1h4.19v5.341h-4.19 c-0.553,0-1,0.448-1,1s0.447,1,1,1h4.19v5.341h-4.19c-0.553,0-1,0.448-1,1s0.447,1,1,1h4.19v4.465c0,3.062,2.491,5.553,5.554,5.553 h4.465v10.75c0,0.552,0.447,1,1,1h3.153l15.898,35.527c-0.903,0.826-1.481,2.002-1.481,3.319c0,2.487,2.024,4.511,4.512,4.511 s4.512-2.024,4.512-4.511c0-2.488-2.024-4.512-4.512-4.512c-0.448,0-0.871,0.086-1.28,0.207L60.475,61.432 c-0.161-0.36-0.519-0.591-0.913-0.591H56.76v-9.75h5.342v6.537c0,0.552,0.447,1,1,1h3.502L83.19,92.473 c-0.882,0.824-1.442,1.988-1.442,3.288c0,2.488,2.023,4.512,4.511,4.512s4.512-2.024,4.512-4.512s-2.024-4.512-4.512-4.512 c-0.466,0-0.907,0.091-1.331,0.223L68.127,57.187c-0.168-0.343-0.517-0.56-0.898-0.56h-3.126V51.09h5.341v3.11c0,0.552,0.447,1,1,1 h4.351l16.65,30.64c-0.789,0.813-1.279,1.917-1.279,3.136c0,2.487,2.024,4.511,4.512,4.511s4.512-2.024,4.512-4.511 C99.187,86.488,97.163,84.464,94.676,84.464z M80.354,101.687c0,1.385-1.127,2.511-2.512,2.511s-2.512-1.126-2.512-2.511 s1.127-2.512,2.512-2.512S80.354,100.302,80.354,101.687z M88.77,95.761c0,1.385-1.127,2.512-2.512,2.512s-2.511-1.127-2.511-2.512 s1.126-2.512,2.511-2.512S88.77,94.376,88.77,95.761z M46.742,45.537V19.925c0-1.959,1.594-3.554,3.554-3.554h25.612 c1.96,0,3.554,1.594,3.554,3.554v25.612c0,1.959-1.594,3.553-3.554,3.553H50.296C48.336,49.09,46.742,47.497,46.742,45.537z M94.676,91.487c-1.385,0-2.512-1.126-2.512-2.511s1.127-2.512,2.512-2.512s2.512,1.127,2.512,2.512S96.06,91.487,94.676,91.487z" style="fill: inherit;"></path><path d="M49.926,66.516c-5.242-1.437-7.982-4.833-8.377-10.384c-0.039-0.551-0.502-0.958-1.068-0.927 c-0.551,0.039-0.965,0.518-0.926,1.068c0.455,6.412,3.767,10.507,9.842,12.171c0.089,0.024,0.178,0.036,0.266,0.036 c0.438,0,0.842-0.292,0.964-0.736C50.771,67.211,50.458,66.662,49.926,66.516z" style="fill: inherit;"></path><path d="M121.992,25.848C113.461,12.465,99.025,13.68,95.331,14.24c-1.036-2.601-4.928-10.355-15.13-12.525 C69.869-0.484,61.555,3.39,59.317,4.587C56.842,2.903,46.439-3.345,35.662,2.34c-5.892,3.108-8.38,8.285-9.372,12.869 c-4.285,0.901-28.503,7.16-26.126,32.978c0.729,7.91,3.778,14.07,9.063,18.309c6.926,5.554,15.932,6.459,21.069,6.459 c1.637,0,2.869-0.091,3.528-0.154c5.032,5.536,11.353,6.591,13.659,6.787c0.439,2.032,2.246,3.561,4.407,3.561 c2.487,0,4.512-2.024,4.512-4.512c0-2.487-2.024-4.511-4.512-4.511c-2.121,0-3.894,1.477-4.373,3.454 c-2.344-0.237-8.974-1.459-13.552-7.75c-2.54-3.49-3.173-6.803-3.094-9.425c0.002-0.023,0.013-0.042,0.013-0.065 c0-0.013-0.007-0.025-0.008-0.038c0.078-2.072,0.593-3.705,0.967-4.619c0.417,0.132,0.853,0.222,1.313,0.222 c2.429,0,4.404-1.976,4.404-4.404s-1.976-4.405-4.404-4.405s-4.404,1.976-4.404,4.405c0,1.243,0.522,2.362,1.352,3.163 c-0.393,0.906-0.975,2.55-1.177,4.676h-8.093c-0.553,0-1,0.448-1,1s0.447,1,1,1h8.031c0.086,2.776,0.92,6.097,3.405,9.556 c-4.128,0.184-14.42-0.041-21.801-5.967c-4.841-3.886-7.638-9.581-8.313-16.925C0.015,24.755,20.404,18.566,25.924,17.322 c-0.532,4.067-0.008,7.243,0.005,7.313c0.084,0.478,0.499,0.827,0.984,0.827h6.242c0.553,0,1-0.448,1-1s-0.447-1-1-1h-5.362 c-0.317-3.131-0.726-14.326,8.802-19.353c11.123-5.869,21.937,2.366,22.045,2.45c0.327,0.253,0.777,0.282,1.134,0.065 c0.088-0.054,8.911-5.313,20.011-2.954c10.356,2.203,13.511,10.717,13.891,11.859v15.833c0,0.552,0.447,1,1,1s1-0.448,1-1v-5.901 h6.193c0.553,0,1-0.448,1-1s-0.447-1-1-1h-6.193v-7.255c3.344-0.514,16.725-1.685,24.63,10.716 c7.07,11.092,2.183,23.33-0.349,28.235c-0.404-1.472-0.842-2.595-1.081-3.153c0.545-1.628,2.31-7.798-0.165-13.268 c-2.911-6.435-9.514-6.509-9.793-6.509c-0.553,0-1,0.448-1,1s0.447,1,1,1c0.056,0,5.586,0.061,7.971,5.333 c2.02,4.466,0.737,9.696,0.19,11.487h-14.209v-8.375c0-0.552-0.447-1-1-1s-1,0.448-1,1v9.375c0,0.552,0.447,1,1,1h15.269 c0.883,2.203,3.668,10.394-0.725,16.759c-4.18,6.055-10.881,7.438-13.275,7.745c-0.489-1.962-2.253-3.427-4.365-3.427 c-2.487,0-4.512,2.024-4.512,4.511c0,2.488,2.024,4.512,4.512,4.512c2.169,0,3.984-1.54,4.413-3.583 c2.536-0.275,10.068-1.662,14.873-8.622c2.932-4.249,3.1-9.065,2.531-12.828C122.148,55.573,130.976,39.942,121.992,25.848z M51.89,76.125c1.385,0,2.512,1.126,2.512,2.511s-1.127,2.512-2.512,2.512s-2.512-1.127-2.512-2.512S50.506,76.125,51.89,76.125z M33.156,49.095c1.326,0,2.404,1.079,2.404,2.405c0,1.326-1.078,2.404-2.404,2.404c-1.326,0-2.404-1.079-2.404-2.404 C30.752,50.173,31.83,49.095,33.156,49.095z M98.773,81.148c-1.385,0-2.512-1.127-2.512-2.512s1.127-2.511,2.512-2.511 s2.512,1.126,2.512,2.511S100.158,81.148,98.773,81.148z" style="fill: inherit;"></path><path d="M47.161,11.18c0.553,0,1-0.448,1-1s-0.447-1-1-1c-5.813,0-9.874,3.953-9.874,9.613c0,0.552,0.447,1,1,1s1-0.448,1-1 C39.287,14.24,42.451,11.18,47.161,11.18z" style="fill: inherit;"></path><path d="M22.738,33.176c0.528-0.158,0.83-0.715,0.672-1.244c-0.157-0.528-0.709-0.832-1.244-0.673 c-7.432,2.215-10.713,7.374-9.754,15.333c0.062,0.508,0.493,0.88,0.992,0.88c0.04,0,0.08-0.002,0.121-0.007 c0.548-0.066,0.938-0.564,0.873-1.112C13.56,39.409,16.289,35.099,22.738,33.176z" style="fill: inherit;"></path><path d="M99.091,68.776c1.351,0,2.84-0.225,4.266-0.903c4.187-1.991,5.289-6.31,5.334-6.493c0.132-0.536-0.196-1.078-0.732-1.209 c-0.533-0.13-1.078,0.196-1.209,0.733c-0.009,0.036-0.912,3.575-4.252,5.164c-3.349,1.592-7.406-0.007-7.445-0.024 c-0.517-0.208-1.096,0.041-1.302,0.552c-0.207,0.511,0.038,1.093,0.549,1.301C94.428,67.949,96.504,68.776,99.091,68.776z" style="fill: inherit;"></path></g></svg>