<svg xmlns="http://www.w3.org/2000/svg" xmlns:xlink="http://www.w3.org/1999/xlink" preserveAspectRatio="xMidYMid meet" version="1.0" viewBox="0.0 0.0 126.0 114.0" zoomAndPan="magnify" original_string_length="5681" width="126px" height="114px"><g id="__id167_skf8sys4wq"><path d="M63,14c2.757,0,5-2.238,5-4.99s-2.243-4.99-5-4.99s-5,2.238-5,4.99S60.243,14,63,14z M63,6.021c1.654,0,3,1.341,3,2.99 S64.654,12,63,12s-3-1.341-3-2.99S61.346,6.021,63,6.021z" style="fill: inherit;"></path><path d="M43,19H25c-0.552,0-1,0.448-1,1v6c0,0.552,0.448,1,1,1h18c0.552,0,1-0.448,1-1v-6C44,19.448,43.552,19,43,19z M42,25H26v-4 h16V25z" style="fill: inherit;"></path><path d="M34,83.517c3.344,0,6.064-2.731,6.064-6.09s-2.72-6.09-6.064-6.09s-6.064,2.731-6.064,6.09S30.656,83.517,34,83.517z M34,73.337c2.241,0,4.064,1.835,4.064,4.09s-1.823,4.09-4.064,4.09s-4.064-1.835-4.064-4.09S31.759,73.337,34,73.337z" style="fill: inherit;"></path><path d="M20,77.427c0,2.179,1.766,3.951,3.936,3.951s3.937-1.772,3.937-3.951s-1.766-3.951-3.937-3.951S20,75.248,20,77.427z M25.873,77.427c0,1.076-0.869,1.951-1.937,1.951c-1.067,0-1.936-0.875-1.936-1.951s0.869-1.951,1.936-1.951 C25.004,75.476,25.873,76.351,25.873,77.427z" style="fill: inherit;"></path><path d="M44.064,81.25c2.17,0,3.936-1.772,3.936-3.951c0-2.18-1.766-3.952-3.936-3.952s-3.937,1.772-3.937,3.952 C40.127,79.478,41.894,81.25,44.064,81.25z M44.064,75.347c1.067,0,1.936,0.876,1.936,1.952s-0.869,1.951-1.936,1.951 c-1.068,0-1.937-0.875-1.937-1.951S42.996,75.347,44.064,75.347z" style="fill: inherit;"></path><path d="M33.851,80.354c0.355,0,0.713-0.06,1.062-0.181c1.673-0.584,2.563-2.425,1.983-4.104c-0.298-0.865-0.953-1.565-1.795-1.921 c-0.51-0.213-1.096,0.025-1.31,0.533c-0.214,0.51,0.024,1.096,0.533,1.311c0.319,0.134,0.567,0.4,0.681,0.729 c0.221,0.641-0.116,1.342-0.751,1.563c-0.403,0.139-0.837,0.06-1.167-0.211c-0.427-0.351-1.057-0.29-1.408,0.138 c-0.351,0.427-0.289,1.057,0.137,1.407C32.404,80.102,33.121,80.354,33.851,80.354z" style="fill: inherit;"></path><path d="M113,2H68.644C67.099,0.752,65.136,0,63,0s-4.099,0.752-5.644,2H13C5.832,2,0,7.832,0,15v65c0,7.168,5.832,13,13,13h33.691 l-2.455,9h-1.303c-3.914,0-7.311,2.785-8.078,6.622l-0.836,4.182c-0.059,0.294,0.017,0.599,0.207,0.83S34.7,114,35,114h56 c0.3,0,0.583-0.135,0.773-0.366s0.266-0.536,0.207-0.83l-0.836-4.182C90.377,104.785,86.98,102,83.066,102h-1.303l-2.455-9H113 c7.168,0,13-5.832,13-13V15C126,7.832,120.168,2,113,2z M90,10v39.704h-3.195c-0.161-9.05-2.475-12.976-4.499-14.658 c1.988-1.623,3.267-4.118,3.267-6.916c0-4.88-3.88-8.851-8.65-8.851s-8.65,3.97-8.65,8.851c0,2.836,1.316,5.358,3.349,6.979 c-1.989,1.707-4.269,5.641-4.429,14.596H64V17.941c4.164-0.463,7.478-3.777,7.941-7.941H90z M104.924,70.161 c-3.667,0-6.65-3.073-6.65-6.851s2.983-6.85,6.65-6.85s6.65,3.073,6.65,6.85S108.591,70.161,104.924,70.161z M101.463,71.417 c1.061,0.476,2.23,0.744,3.461,0.744c1.264,0,2.462-0.286,3.546-0.787c1.339,0.82,4.185,3.734,4.344,13.625H97.193 C97.354,75.251,100.132,72.273,101.463,71.417z M114.803,84.65c-0.197-8.896-2.499-12.758-4.499-14.422 c1.989-1.623,3.27-4.118,3.27-6.918c0-4.88-3.88-8.85-8.65-8.85s-8.65,3.97-8.65,8.85c0,2.836,1.316,5.358,3.349,6.979 c-1.998,1.715-4.288,5.674-4.431,14.711H92V51.704h26V80C118,82.119,116.669,83.924,114.803,84.65z M76.924,70.161 c-3.667,0-6.65-3.073-6.65-6.851s2.983-6.85,6.65-6.85s6.65,3.073,6.65,6.85S80.591,70.161,76.924,70.161z M73.463,71.417 c1.061,0.476,2.23,0.744,3.461,0.744c1.264,0,2.462-0.286,3.546-0.787c1.345,0.823,4.175,3.75,4.338,13.625H69.193 C69.354,75.251,72.132,72.273,73.463,71.417z M86.807,85c-0.143-9.132-2.469-13.083-4.501-14.773 c1.988-1.623,3.268-4.118,3.268-6.916c0-4.88-3.88-8.85-8.65-8.85s-8.65,3.97-8.65,8.85c0,2.836,1.316,5.358,3.349,6.979 c-1.998,1.715-4.288,5.674-4.431,14.711H64V51.704h26V85H86.807z M33.862,58.375C26.77,58.375,21,52.487,21,45.25 s5.77-13.125,12.862-13.125c7.092,0,12.862,5.888,12.862,13.125S40.954,58.375,33.862,58.375z M33.862,60.375 c2.318,0,4.505-0.558,6.462-1.526c2.853,1.479,8.5,6.858,8.668,26.151H19.008c0.166-19.069,5.722-24.539,8.536-26.08 C29.465,59.843,31.601,60.375,33.862,60.375z M50.991,85c-0.161-18.309-5.32-24.928-8.716-27.295 c3.89-2.73,6.449-7.293,6.449-12.455c0-8.34-6.667-15.125-14.862-15.125C25.667,30.124,19,36.909,19,45.25 c0,5.218,2.61,9.826,6.57,12.546c-3.675,2.598-8.41,9.412-8.562,27.205H13c-2.757,0-5-2.243-5-5V15c0-2.757,2.243-5,5-5h41.059 c0.463,4.164,3.777,7.478,7.941,7.941V85H50.991z M76.924,34.98c-3.667,0-6.65-3.073-6.65-6.851s2.983-6.851,6.65-6.851 s6.65,3.073,6.65,6.851S80.591,34.98,76.924,34.98z M73.463,36.235c1.061,0.476,2.23,0.745,3.461,0.745 c1.264,0,2.463-0.286,3.546-0.787c1.34,0.82,4.152,3.729,4.335,13.511h-15.61C69.376,40.048,72.137,37.089,73.463,36.235z M104.924,34.98c-3.667,0-6.65-3.073-6.65-6.851s2.983-6.851,6.65-6.851s6.65,3.073,6.65,6.851S108.591,34.98,104.924,34.98z M101.463,36.235c1.061,0.476,2.23,0.745,3.461,0.745c1.264,0,2.463-0.286,3.546-0.787c1.34,0.82,4.152,3.729,4.335,13.511h-15.61 C97.376,40.048,100.137,37.089,101.463,36.235z M118,49.704h-3.195c-0.161-9.05-2.475-12.976-4.499-14.658 c1.988-1.623,3.267-4.118,3.267-6.916c0-4.88-3.88-8.851-8.65-8.851s-8.65,3.97-8.65,8.851c0,2.836,1.316,5.358,3.349,6.979 c-1.989,1.707-4.269,5.641-4.429,14.596H92V10h21c2.757,0,5,2.243,5,5V49.704z M70,9c0,3.86-3.14,7-7,7s-7-3.14-7-7s3.14-7,7-7 S70,5.14,70,9z M89.183,109.015L89.78,112H36.22l0.597-2.985c0.581-2.906,3.153-5.015,6.117-5.015h40.133 C86.03,104,88.602,106.108,89.183,109.015z M79.691,102H46.309l2.455-9h28.473L79.691,102z M124,80c0,6.065-4.935,11-11,11H13 C6.935,91,2,86.065,2,80V15C2,8.935,6.935,4,13,4h42.522c-0.784,1.169-1.3,2.532-1.463,4H13c-3.86,0-7,3.14-7,7v65 c0,3.859,3.14,7,7,7h100c3.86,0,7-3.141,7-7V15c0-3.86-3.14-7-7-7H71.941c-0.163-1.468-0.678-2.831-1.463-4H113 c6.065,0,11,4.935,11,11V80z" style="fill: inherit;"></path></g></svg>