<svg xmlns="http://www.w3.org/2000/svg" xmlns:xlink="http://www.w3.org/1999/xlink" preserveAspectRatio="xMidYMid meet" version="1.0" viewBox="0.0 0.0 126.0 126.0" zoomAndPan="magnify" style="fill: rgb(147, 20, 23);" original_string_length="6311"><g id="__id164_sj9uzss05o"><path d="M126,63c0-7.087-4.882-13.955-13.747-19.407c3.213-9.789,3.251-17.964,0.114-23.747c0.767-1.01,1.203-2.222,1.203-3.507 c0-3.226-2.62-5.85-5.84-5.85c-1.668,0-3.244,0.717-4.351,1.945c-5.514-1.845-12.73-1.395-20.973,1.31C76.953,4.881,70.087,0,63,0 c-7.088,0-13.956,4.883-19.408,13.749c-12.034-3.955-21.72-3.075-27.321,2.525c-2.265,2.274-3.76,5.218-4.473,8.747 c-3.21,0.012-5.818,2.631-5.818,5.849c0,3.22,2.62,5.84,5.84,5.84c0.05,0,0.095-0.006,0.144-0.007 c0.404,2.203,0.998,4.51,1.776,6.889C4.879,49.047,0,55.915,0,63c0,7.088,4.883,13.955,13.749,19.407 c-3.955,12.034-3.075,21.72,2.524,27.319c3.301,3.302,8.02,4.967,13.805,4.967c4.027,0,8.576-0.818,13.515-2.441 C49.046,121.118,55.913,126,63,126c7.088,0,13.956-4.883,19.406-13.747c4.941,1.623,9.488,2.441,13.515,2.441 c5.784,0,10.504-1.665,13.805-4.967c5.599-5.599,6.479-15.286,2.524-27.319C121.118,76.955,126,70.088,126,63z M87.073,96.948 C86.546,96.797,86,96.71,85.45,96.71c-3.226,0-5.85,2.62-5.85,5.84c0,2.174,1.236,4.145,3.091,5.141 c-0.395,0.766-0.781,1.476-1.165,2.146c-5.342-1.896-10.947-4.678-16.693-8.285c3.681-2.463,7.334-5.191,10.882-8.151 c4.5-0.456,8.843-1.151,12.962-2.053C88.194,93.268,87.657,95.141,87.073,96.948z M44.486,109.831 c-2.922-5.098-5.374-11.439-7.153-18.482c4.116,0.901,8.456,1.595,12.952,2.051c3.547,2.959,7.2,5.687,10.882,8.151 C55.425,105.156,49.825,107.936,44.486,109.831z M44.486,16.168c5.358,1.902,10.961,4.685,16.689,8.288 c-3.629,2.418-7.282,5.142-10.889,8.144c-4.494,0.454-8.835,1.149-12.953,2.051C39.112,27.609,41.564,21.269,44.486,16.168z M81.514,16.168c2.922,5.1,5.374,11.441,7.153,18.483c-4.118-0.902-8.458-1.597-12.952-2.051 c-3.581-2.988-7.231-5.713-10.872-8.143C70.581,20.847,76.178,18.063,81.514,16.168z M78.42,91.078 c2.22-1.959,4.407-4.011,6.527-6.13c2.132-2.132,4.182-4.32,6.126-6.528c-0.463,3.724-1.094,7.33-1.884,10.769 C85.757,89.976,82.151,90.609,78.42,91.078z M36.811,89.189c-0.797-3.474-1.431-7.086-1.893-10.786 c1.964,2.233,4.017,4.425,6.135,6.544c2.12,2.119,4.307,4.171,6.527,6.13C43.85,90.609,40.244,89.976,36.811,89.189z M47.583,34.922c-2.189,1.933-4.377,3.984-6.531,6.131c-2.119,2.119-4.17,4.306-6.13,6.528c0.468-3.728,1.101-7.335,1.889-10.77 C40.247,36.023,43.854,35.39,47.583,34.922z M51.097,91.471c-2.942-2.485-5.844-5.153-8.63-7.938 c-2.778-2.779-5.445-5.689-7.938-8.65C34.16,71.028,33.97,67.033,33.97,63c0-4.036,0.19-8.038,0.559-11.903 c2.488-2.943,5.155-5.846,7.937-8.628c2.843-2.834,5.747-5.502,8.631-7.939C54.963,34.16,58.964,33.97,63,33.97 c4.036,0,8.038,0.19,11.903,0.559c2.943,2.488,5.846,5.155,8.63,7.938c2.784,2.785,5.451,5.688,7.938,8.631 C91.84,54.963,92.03,58.964,92.03,63c0,4.067-0.193,8.066-0.568,11.902c-2.459,2.921-5.122,5.824-7.929,8.631 c-2.786,2.786-5.69,5.453-8.631,7.938C67.161,92.207,58.838,92.207,51.097,91.471z M32.294,72.156 c-2.427-3.034-4.657-6.104-6.66-9.165c2.008-3.06,4.239-6.128,6.66-9.162C32.08,56.838,31.97,59.909,31.97,63 C31.97,66.088,32.08,69.155,32.294,72.156z M93.706,53.83c2.403,3.012,4.636,6.083,6.668,9.169 c-2.04,3.098-4.274,6.169-6.673,9.169c0.216-2.99,0.328-6.061,0.328-9.169C94.03,59.91,93.92,56.839,93.706,53.83z M84.947,41.053 c-2.119-2.119-4.306-4.17-6.528-6.13c3.728,0.468,7.335,1.101,10.77,1.889c0.788,3.435,1.42,7.041,1.889,10.77 C89.118,45.359,87.066,43.172,84.947,41.053z M72.172,32.295c-6.025-0.426-12.311-0.426-18.337,0 c3.051-2.431,6.124-4.662,9.174-6.66C66.069,27.642,69.138,29.873,72.172,32.295z M32.6,50.285 c-2.988,3.582-5.714,7.231-8.144,10.874c-3.59-5.696-6.376-11.294-8.296-16.672c5.114-2.926,11.458-5.379,18.492-7.153 C33.749,41.451,33.054,45.791,32.6,50.285z M24.456,64.826c2.424,3.641,5.148,7.289,8.144,10.869 c0.442,4.454,1.137,8.802,2.052,12.972c-7.04-1.778-13.381-4.23-18.483-7.154C18.07,76.156,20.853,70.553,24.456,64.826z M53.83,93.706c3.011,0.214,6.082,0.324,9.17,0.324c3.088,0,6.159-0.11,9.17-0.324c-3.011,2.402-6.082,4.635-9.17,6.669 C59.911,98.341,56.84,96.107,53.83,93.706z M93.391,75.714c2.956-3.532,5.687-7.186,8.16-10.881 c3.604,5.742,6.384,11.341,8.281,16.681c-5.101,2.923-11.442,5.376-18.483,7.153C92.254,84.541,92.946,80.201,93.391,75.714z M101.551,61.167c-2.462-3.679-5.191-7.332-8.151-10.881c-0.454-4.494-1.149-8.834-2.051-12.953 c7.042,1.778,13.383,4.23,18.483,7.153C107.937,49.825,105.155,55.426,101.551,61.167z M102.308,14.185 c-0.272,0.683-0.428,1.409-0.428,2.155c0,3.22,2.625,5.84,5.85,5.84c1.127,0,2.202-0.323,3.13-0.917 c2.532,5.14,2.399,12.613-0.375,21.296c-5.438-3.063-12.178-5.613-19.632-7.413c-1.801-7.456-4.352-14.197-7.415-19.635 C90.874,13.13,97.35,12.672,102.308,14.185z M63,2c6.269,0,12.438,4.405,17.471,12.419c-5.601,2.027-11.465,4.989-17.462,8.83 c-5.986-3.834-11.857-6.796-17.48-8.83C50.561,6.406,56.731,2,63,2z M17.687,17.687c4.978-4.976,13.785-5.727,24.872-2.17 c-3.062,5.438-5.612,12.176-7.412,19.63c-7.444,1.797-14.186,4.346-19.638,7.412c-0.688-2.158-1.218-4.249-1.583-6.245 c2.212-0.851,3.735-3.003,3.735-5.443c0-2.533-1.587-4.709-3.892-5.512C14.407,22.246,15.718,19.664,17.687,17.687z M2,63 c0-6.267,4.403-12.438,12.411-17.472c2.052,5.646,5.018,11.511,8.837,17.463c-3.833,5.986-6.796,11.857-8.829,17.479 C6.406,75.439,2,69.27,2,63z M17.687,108.313c-4.977-4.977-5.727-13.784-2.171-24.872c5.439,3.064,12.178,5.613,19.63,7.413 c1.801,7.454,4.35,14.193,7.412,19.629C31.472,114.04,22.664,113.289,17.687,108.313z M63,124c-6.269,0-12.439-4.405-17.471-12.419 c5.602-2.026,11.468-4.984,17.471-8.82c6.003,3.835,11.87,6.793,17.471,8.82C75.439,119.595,69.27,124,63,124z M108.313,108.313 c-4.975,4.975-13.775,5.726-24.857,2.176c0.378-0.672,0.76-1.387,1.149-2.151c0.277,0.041,0.559,0.063,0.845,0.063 c3.22,0,5.84-2.625,5.84-5.851c0-1.889-0.903-3.63-2.4-4.72c0.731-2.238,1.391-4.577,1.967-6.976 c7.452-1.801,14.189-4.349,19.626-7.412C114.04,94.528,113.29,103.336,108.313,108.313z M111.581,80.471 c-2.027-5.602-4.986-11.468-8.82-17.471c3.834-6.002,6.793-11.869,8.82-17.471C119.595,50.561,124,56.731,124,63 C124,69.269,119.595,75.438,111.581,80.471z" style="fill: inherit;"/><path d="M76.59,60.09c0-7.494-6.096-13.59-13.59-13.59s-13.59,6.096-13.59,13.59c0,7.499,6.096,13.601,13.59,13.601 S76.59,67.589,76.59,60.09z" style="fill: inherit;"/></g></svg>