<svg xmlns="http://www.w3.org/2000/svg" xmlns:xlink="http://www.w3.org/1999/xlink" preserveAspectRatio="xMidYMid meet" version="1.0" viewBox="0.0 -0.1 126.0 110.6" zoomAndPan="magnify" style="fill: rgb(147, 20, 23);" original_string_length="4962" width="126px" height="111px"><g id="__id165_skf8sys4wq"><path d="M125.45,0.108c-0.337-0.172-0.741-0.137-1.045,0.089L94.235,22.505c-2.301-3.155-7.098-3.374-11.749-3.578 c-2.487-0.108-5.06-0.221-7.127-0.783c-2.548-0.693-4.685-0.957-7.192-0.945c-19.877,0.25-31.423,6.052-34.108,7.568L1.588,1.152 C1.284,0.931,0.881,0.9,0.546,1.069C0.211,1.24,0,1.585,0,1.961v53c0,0.366,0.2,0.703,0.521,0.878l10.751,5.864 c1.089,1.889,7.8,13.152,15.889,18.3c-0.308,0.72-0.525,1.489-0.636,2.291c-0.392,2.813,0.298,5.397,1.893,7.091 c0.959,1.018,2.693,2.157,5.624,2.2c-0.002,0.086-0.011,0.169-0.011,0.255c0,1.792,0.349,6.193,3.581,8.361 c1.159,0.777,2.535,1.166,4.119,1.166c1.377,0,2.92-0.31,4.604-0.897c0.766,2.981,2.932,6.146,7.162,6.163c0.014,0,0.027,0,0.041,0 c0.994,0,1.9-0.151,2.718-0.441c0.935,2.33,2.559,3.817,4.657,4.226c0.394,0.076,0.796,0.114,1.204,0.114 c2.328,0,4.789-1.232,6.479-3.277c0.953,0.249,1.842,0.369,2.659,0.369c3.439,0,5.675-1.996,6.712-4.236 c0.694-1.499,0.895-3.116,0.666-4.51c0.63,0.164,1.27,0.275,1.914,0.275c0.356,0,0.711-0.025,1.064-0.078 c3.247-0.482,5.907-2.048,7.906-4.655c1.215-1.584,1.604-3.554,1.258-5.413c5.116-0.817,8.514-4.835,9.917-8.228 c0.069-0.168,0.101-0.336,0.149-0.505c1.759-1.125,9.772-6.72,19.404-20.813l5.204-2.606c0.338-0.17,0.552-0.516,0.552-0.895V1.001 C126,0.623,125.788,0.278,125.45,0.108z M29.873,88.014c-1.177-1.25-1.676-3.234-1.368-5.444c0.234-1.677,1.045-3.167,2.285-4.195 c1.214-1.007,2.694-1.448,4.17-1.242c2.806,0.391,4.952,3.126,4.966,6.15c-2.786,0.777-4.933,3.181-5.639,6.308 C32.364,89.609,30.88,89.082,29.873,88.014z M38.725,98.541c-2.501-1.679-2.695-5.554-2.695-6.701c0-3.896,2.516-6.834,5.852-6.834 c3.685,0,5.747,2.709,5.843,7.629c-1.073,1.395-1.717,3.24-1.724,5.322c-0.001,0.162,0.008,0.332,0.017,0.503 C42.86,99.629,40.403,99.667,38.725,98.541z M53.536,104.633c-0.011,0-0.021,0-0.032,0c-4.026-0.016-5.513-4.099-5.504-6.668 c0.006-1.7,0.546-3.195,1.44-4.268c0.001-0.001,0.002-0.003,0.003-0.004c0.895-1.072,2.143-1.722,3.564-1.732 c0.012,0,0.024,0,0.036,0c1.485,0,2.994,0.653,4.145,1.796C58.356,94.917,59,96.41,59,97.961c0,2.295-0.628,4.185-1.77,5.321 C56.33,104.179,55.087,104.633,53.536,104.633z M61.295,108.455c-1.48-0.289-2.597-1.403-3.266-3.225 c0.213-0.164,0.419-0.338,0.613-0.53c1.265-1.26,2.049-3.134,2.28-5.356c2.589-1.401,5.23-0.714,6.574,0.789 c1.405,1.571,1.301,3.688-0.286,5.671C65.7,107.75,63.268,108.843,61.295,108.455z M90.114,87.076 c-0.337-0.651-0.762-1.267-1.313-1.804C80.972,77.63,67.534,67.205,67.399,67.1c-0.437-0.337-1.066-0.259-1.403,0.179 c-0.338,0.437-0.258,1.064,0.178,1.403c0.134,0.104,13.483,10.459,21.23,18.021c1.796,1.753,2.022,4.548,0.525,6.5 c-1.673,2.181-3.898,3.49-6.613,3.894c-1.512,0.225-3.117-0.226-4.404-1.233C72.768,92.616,62.5,84.394,56.669,78.196 c-0.378-0.401-1.011-0.421-1.414-0.043c-0.402,0.379-0.422,1.012-0.043,1.414c5.925,6.298,16.287,14.595,20.466,17.87 c0.024,0.018,0.05,0.031,0.074,0.049c0.005,0.003,0.007,0.008,0.012,0.012c0.997,0.625,1.374,2.917,0.386,5.049 c-0.559,1.207-2.26,3.721-6.395,2.921c1.129-2.324,0.895-4.807-0.769-6.669c-1.706-1.908-4.857-2.931-8.038-1.691 c-0.2-1.774-1.015-3.443-2.352-4.77c-1.523-1.513-3.545-2.377-5.555-2.377c-0.016,0-0.033,0-0.049,0 c-1.242,0.009-2.39,0.351-3.381,0.956c-0.59-4.978-3.371-7.893-7.695-7.909c-0.128-3.93-2.926-7.334-6.681-7.856 c-2.041-0.289-4.072,0.313-5.723,1.683c-0.51,0.423-0.956,0.909-1.349,1.437c-8.197-5.266-15.219-17.671-15.292-17.8 c-0.092-0.164-0.228-0.299-0.393-0.389L2,54.367V3.925l31.412,22.845c0.332,0.241,0.777,0.255,1.123,0.037 c0.116-0.073,11.884-7.335,33.656-7.608c2.296-0.029,4.283,0.233,6.643,0.875c2.283,0.621,4.968,0.738,7.565,0.852 c4.479,0.196,8.709,0.382,10.362,2.944c0.56,0.868,0.606,1.876,0.547,2.568c-0.056,0.647-0.512,3.997-4.015,6.337 c-3.043,2.035-9.125,3.68-20.804-0.021c-7.084-2.317-22.62,5.619-30.761,13.733c-1.528,1.522-1.885,3.9-0.869,5.783 c1.706,3.159,6.633,5.854,13.417,4.299c0.036-0.008,0.071-0.019,0.106-0.03c0.068-0.023,6.904-2.417,13.132-5.591 c0.88-0.449,1.908-0.443,2.761,0.009c1.495,1.11,23.404,17.395,31.166,24.88c1.032,0.996,2.02,2.688,1.403,4.178 C97.849,82.415,94.922,86.471,90.114,87.076z M124,55.344l-4.883,2.445c-0.153,0.077-0.283,0.191-0.379,0.332 c-8.031,11.803-15.017,17.611-17.876,19.701c-0.337-1.356-1.16-2.582-2.033-3.424c-5.692-5.49-18.459-15.327-25.867-20.927 c5.999,1.383,14.684,1.227,24.542-5.67c0.453-0.316,0.563-0.94,0.246-1.393s-0.939-0.563-1.393-0.246 c-13.716,9.595-24.914,5.332-29.092,3.053c-1.438-0.785-3.182-0.805-4.661-0.048c-5.82,2.966-12.194,5.24-12.83,5.466 c-6.124,1.376-10.025-1.22-11.156-3.313c-0.599-1.109-0.384-2.515,0.521-3.417c8.312-8.284,23.079-15.092,28.736-13.246 c9.992,3.167,17.571,3.094,22.528-0.219c3.303-2.206,4.695-5.49,4.896-7.828c0.069-0.801-0.006-1.559-0.192-2.263L124,2.984V55.344z" style="fill: inherit;"></path></g></svg>